<?xml version="1.0" ?>
<svg xmlns="http://www.w3.org/2000/svg" version="1.1" width="224" height="224">
  <defs/>
  <g>
    <path d="M 1.4319887161254883 204.6162567138672 C 21.438087463378906 206.72682189941406 102.75190734863281 213.01181030273438 166.1245880126953 207.51742553710938" stroke-width="2.0" fill="none" stroke="rgb(0, 0, 0)" stroke-opacity="1.0" stroke-linecap="round" stroke-linejoin="round"/>
    <path d="M 141.50845336914062 65.016845703125 C 147.744384765625 45.08726501464844 146.17672729492188 42.799285888671875 192.1804656982422 33.134803771972656" stroke-width="2.0" fill="none" stroke="rgb(0, 0, 0)" stroke-opacity="1.0" stroke-linecap="round" stroke-linejoin="round"/>
    <path d="M 13.3538236618042 24.803171157836914 C 61.817604064941406 46.90132141113281 82.69304656982422 29.756555557250977 86.6859359741211 69.18939208984375" stroke-width="2.0" fill="none" stroke="rgb(0, 0, 0)" stroke-opacity="1.0" stroke-linecap="round" stroke-linejoin="round"/>
    <path d="M 38.43246078491211 35.40126419067383 C 99.77870178222656 44.96923828125 76.48213958740234 51.23271942138672 92.22733306884766 76.9433364868164" stroke-width="2.0" fill="none" stroke="rgb(0, 0, 0)" stroke-opacity="1.0" stroke-linecap="round" stroke-linejoin="round"/>
    <path d="M 111.50588989257812 71.98138427734375 C 100.1424789428711 41.195255279541016 132.49127197265625 43.45229721069336 118.90193176269531 70.87631225585938" stroke-width="2.0" fill="none" stroke="rgb(0, 0, 0)" stroke-opacity="1.0" stroke-linecap="round" stroke-linejoin="round"/>
    <path d="M 124.64950561523438 103.22138977050781 C 138.41258239746094 159.27359008789062 128.28936767578125 202.24850463867188 175.49508666992188 201.46983337402344" stroke-width="2.0" fill="none" stroke="rgb(0, 0, 0)" stroke-opacity="1.0" stroke-linecap="round" stroke-linejoin="round"/>
    <path d="M 124.94646453857422 79.25634002685547 C 143.86109924316406 72.91059875488281 135.9117889404297 69.37264251708984 141.2479248046875 64.07554626464844" stroke-width="2.0" fill="none" stroke="rgb(0, 0, 0)" stroke-opacity="1.0" stroke-linecap="round" stroke-linejoin="round"/>
    <path d="M 111.45709228515625 72.29524230957031 C 100.31114959716797 39.00226593017578 133.8924560546875 45.7971305847168 117.93113708496094 72.48735046386719" stroke-width="2.0" fill="none" stroke="rgb(0, 0, 0)" stroke-opacity="1.0" stroke-linecap="round" stroke-linejoin="round"/>
    <path d="M 106.04298400878906 100.33772277832031 C 91.622314453125 149.19129943847656 96.70719146728516 195.28952026367188 52.16207504272461 201.5889892578125" stroke-width="2.0" fill="none" stroke="rgb(0, 0, 0)" stroke-opacity="1.0" stroke-linecap="round" stroke-linejoin="round"/>
    <path d="M 126.95552062988281 78.9552230834961 C 151.35842895507812 66.8604736328125 131.56781005859375 56.59442138671875 154.8644256591797 44.606407165527344" stroke-width="2.0" fill="none" stroke="rgb(0, 0, 0)" stroke-opacity="1.0" stroke-linecap="round" stroke-linejoin="round"/>
    <path d="M 3.6631345748901367 18.21127700805664 C 19.80374526977539 33.62940979003906 33.36632537841797 31.82134246826172 36.40304946899414 40.97913360595703" stroke-width="2.0" fill="none" stroke="rgb(0, 0, 0)" stroke-opacity="1.0" stroke-linecap="round" stroke-linejoin="round"/>
    <path d="M 31.77470588684082 208.9784393310547 C 118.00865173339844 214.00279235839844 195.16403198242188 211.0408172607422 216.14620971679688 202.76878356933594" stroke-width="2.0" fill="none" stroke="rgb(0, 0, 0)" stroke-opacity="1.0" stroke-linecap="round" stroke-linejoin="round"/>
    <path d="M 105.6806869506836 76.00187683105469 C 100.13374328613281 102.2998046875 98.1099853515625 110.16930389404297 80.21804809570312 124.5986328125" stroke-width="2.0" fill="none" stroke="rgb(0, 0, 0)" stroke-opacity="1.0" stroke-linecap="round" stroke-linejoin="round"/>
    <path d="M 66.61884307861328 124.48251342773438 C 72.75457763671875 119.42254638671875 87.25003051757812 121.9263916015625 101.26243591308594 86.20198822021484" stroke-width="2.0" fill="none" stroke="rgb(0, 0, 0)" stroke-opacity="1.0" stroke-linecap="round" stroke-linejoin="round"/>
    <path d="M 125.80674743652344 87.93276977539062 C 141.92477416992188 116.13360595703125 151.39846801757812 119.18079376220703 163.93077087402344 124.46302032470703" stroke-width="2.0" fill="none" stroke="rgb(0, 0, 0)" stroke-opacity="1.0" stroke-linecap="round" stroke-linejoin="round"/>
    <path d="M 131.41079711914062 78.71062469482422 C 155.61245727539062 63.218055725097656 126.56816101074219 51.60175323486328 165.52688598632812 40.05879211425781" stroke-width="2.0" fill="none" stroke="rgb(0, 0, 0)" stroke-opacity="1.0" stroke-linecap="round" stroke-linejoin="round"/>
    <path d="M 99.63878631591797 89.71662139892578 C 133.4042510986328 71.43262481689453 117.14097595214844 100.66012573242188 125.42181396484375 101.3210220336914" stroke-width="2.0" fill="none" stroke="rgb(0, 0, 0)" stroke-opacity="1.0" stroke-linecap="round" stroke-linejoin="round"/>
    <path d="M 122.63616943359375 89.85607147216797 C 129.8558807373047 112.81917572021484 126.95790100097656 127.71708679199219 133.91529846191406 156.19900512695312" stroke-width="2.0" fill="none" stroke="rgb(0, 0, 0)" stroke-opacity="1.0" stroke-linecap="round" stroke-linejoin="round"/>
    <path d="M 43.196529388427734 80.47257995605469 C 76.10499572753906 92.30891418457031 43.042625427246094 96.89922332763672 84.90955352783203 96.15985870361328" stroke-width="2.0" fill="none" stroke="rgb(0, 0, 0)" stroke-opacity="1.0" stroke-linecap="round" stroke-linejoin="round"/>
    <path d="M 14.146632194519043 46.448448181152344 C 35.49811553955078 77.9241714477539 36.702056884765625 75.25550079345703 62.102081298828125 74.09323120117188" stroke-width="2.0" fill="none" stroke="rgb(0, 0, 0)" stroke-opacity="1.0" stroke-linecap="round" stroke-linejoin="round"/>
    <path d="M 170.54652404785156 84.56201171875 C 171.49676513671875 78.01802825927734 182.13046264648438 86.23851776123047 199.59669494628906 60.461448669433594" stroke-width="2.0" fill="none" stroke="rgb(0, 0, 0)" stroke-opacity="1.0" stroke-linecap="round" stroke-linejoin="round"/>
    <path d="M 181.69735717773438 56.36621856689453 C 189.04888916015625 49.55182647705078 197.81826782226562 51.631927490234375 212.18544006347656 32.95779800415039" stroke-width="2.0" fill="none" stroke="rgb(0, 0, 0)" stroke-opacity="1.0" stroke-linecap="round" stroke-linejoin="round"/>
    <path d="M 180.01824951171875 84.45059204101562 C 172.62307739257812 95.17379760742188 159.60438537597656 100.30043029785156 152.5340576171875 102.4737319946289" stroke-width="2.0" fill="none" stroke="rgb(0, 0, 0)" stroke-opacity="1.0" stroke-linecap="round" stroke-linejoin="round"/>
    <path d="M 175.2816619873047 68.15554809570312 C 179.9453125 63.08662414550781 188.04884338378906 69.08765411376953 206.8210906982422 47.06645965576172" stroke-width="2.0" fill="none" stroke="rgb(0, 0, 0)" stroke-opacity="1.0" stroke-linecap="round" stroke-linejoin="round"/>
    <path d="M 169.3113250732422 89.5372085571289 C 172.27381896972656 84.0737533569336 176.6455078125 91.52022552490234 193.354248046875 69.16006469726562" stroke-width="2.0" fill="none" stroke="rgb(0, 0, 0)" stroke-opacity="1.0" stroke-linecap="round" stroke-linejoin="round"/>
    <path d="M 109.2188491821289 110.8208999633789 C 104.53860473632812 171.06886291503906 105.28446960449219 210.99142456054688 58.743961334228516 205.42056274414062" stroke-width="2.0" fill="none" stroke="rgb(0, 0, 0)" stroke-opacity="1.0" stroke-linecap="round" stroke-linejoin="round"/>
    <path d="M 5.451706886291504 27.35654067993164 C 30.55752182006836 58.0975456237793 30.55575180053711 47.603233337402344 47.90436553955078 56.20855712890625" stroke-width="2.0" fill="none" stroke="rgb(0, 0, 0)" stroke-opacity="1.0" stroke-linecap="round" stroke-linejoin="round"/>
    <path d="M 19.157066345214844 57.9868278503418 C 49.839202880859375 85.49169158935547 47.6275634765625 66.93669128417969 58.72588348388672 73.27176666259766" stroke-width="2.0" fill="none" stroke="rgb(0, 0, 0)" stroke-opacity="1.0" stroke-linecap="round" stroke-linejoin="round"/>
    <path d="M 180.88571166992188 39.731712341308594 C 191.6744842529297 32.12178421020508 202.5707244873047 34.425315856933594 214.59912109375 21.383853912353516" stroke-width="2.0" fill="none" stroke="rgb(0, 0, 0)" stroke-opacity="1.0" stroke-linecap="round" stroke-linejoin="round"/>
    <path d="M 116.23938751220703 71.46697998046875 C 140.1621856689453 77.58689880371094 124.49815368652344 94.36325073242188 133.92832946777344 105.47696685791016" stroke-width="2.0" fill="none" stroke="rgb(0, 0, 0)" stroke-opacity="1.0" stroke-linecap="round" stroke-linejoin="round"/>
    <path d="M 113.92721557617188 109.67095184326172 C 106.49190521240234 156.77195739746094 112.51189422607422 207.20460510253906 77.3780517578125 205.4518585205078" stroke-width="2.0" fill="none" stroke="rgb(0, 0, 0)" stroke-opacity="1.0" stroke-linecap="round" stroke-linejoin="round"/>
    <path d="M 120.38924407958984 105.47967529296875 C 125.29434967041016 160.84278869628906 114.25580596923828 210.71983337402344 153.7625732421875 207.14306640625" stroke-width="2.0" fill="none" stroke="rgb(0, 0, 0)" stroke-opacity="1.0" stroke-linecap="round" stroke-linejoin="round"/>
  </g>
</svg>
