<?xml version="1.0" ?>
<svg xmlns="http://www.w3.org/2000/svg" version="1.1" width="224" height="224">
  <defs/>
  <g>
    <path d="M 123.57511138916016 160.35009765625 C 132.5205078125 185.6141815185547 124.37479400634766 196.19635009765625 124.30249786376953 221.2975311279297" stroke-width="2.0" fill="none" stroke="rgb(0, 0, 0)" stroke-opacity="1.0" stroke-linecap="round" stroke-linejoin="round"/>
    <path d="M 159.05435180664062 122.61071014404297 C 166.9016876220703 139.0818634033203 166.6442108154297 125.80049133300781 174.70993041992188 140.62867736816406" stroke-width="2.0" fill="none" stroke="rgb(0, 0, 0)" stroke-opacity="1.0" stroke-linecap="round" stroke-linejoin="round"/>
    <path d="M 121.77439880371094 173.63238525390625 C 108.8686294555664 195.57595825195312 96.6036148071289 203.39093017578125 101.65764617919922 221.19259643554688" stroke-width="2.0" fill="none" stroke="rgb(0, 0, 0)" stroke-opacity="1.0" stroke-linecap="round" stroke-linejoin="round"/>
    <path d="M 65.73145294189453 69.26521301269531 C 74.02013397216797 47.99987030029297 94.27079772949219 45.80677795410156 108.63025665283203 46.05513381958008" stroke-width="2.0" fill="none" stroke="rgb(0, 0, 0)" stroke-opacity="1.0" stroke-linecap="round" stroke-linejoin="round"/>
    <path d="M 150.75399780273438 61.746604919433594 C 161.13694763183594 74.4566421508789 164.23121643066406 92.33811950683594 157.942626953125 123.06602478027344" stroke-width="2.0" fill="none" stroke="rgb(0, 0, 0)" stroke-opacity="1.0" stroke-linecap="round" stroke-linejoin="round"/>
    <path d="M 102.29802703857422 47.465972900390625 C 120.52664184570312 42.18668746948242 128.2009735107422 38.294639587402344 142.13978576660156 45.579986572265625" stroke-width="2.0" fill="none" stroke="rgb(0, 0, 0)" stroke-opacity="1.0" stroke-linecap="round" stroke-linejoin="round"/>
    <path d="M 120.85449981689453 120.30842590332031 C 115.13575744628906 166.2647247314453 135.43777465820312 152.21533203125 118.53398132324219 187.16644287109375" stroke-width="2.0" fill="none" stroke="rgb(0, 0, 0)" stroke-opacity="1.0" stroke-linecap="round" stroke-linejoin="round"/>
    <path d="M 153.31251525878906 64.35164642333984 C 157.7148895263672 70.52497863769531 166.8607177734375 104.65498352050781 145.04612731933594 107.27009582519531" stroke-width="2.0" fill="none" stroke="rgb(0, 0, 0)" stroke-opacity="1.0" stroke-linecap="round" stroke-linejoin="round"/>
    <path d="M 57.60865020751953 88.55826568603516 C 69.30532836914062 112.37599182128906 78.40853881835938 107.61358642578125 109.25694274902344 94.03166198730469" stroke-width="2.0" fill="none" stroke="rgb(0, 0, 0)" stroke-opacity="1.0" stroke-linecap="round" stroke-linejoin="round"/>
    <path d="M 65.7837905883789 77.02631378173828 C 65.32955932617188 56.586021423339844 81.53022003173828 48.591697692871094 97.31472778320312 46.24517822265625" stroke-width="2.0" fill="none" stroke="rgb(0, 0, 0)" stroke-opacity="1.0" stroke-linecap="round" stroke-linejoin="round"/>
    <path d="M 155.00498962402344 68.37979125976562 C 164.02835083007812 85.56040954589844 158.9227752685547 105.07563781738281 158.64405822753906 121.24325561523438" stroke-width="2.0" fill="none" stroke="rgb(0, 0, 0)" stroke-opacity="1.0" stroke-linecap="round" stroke-linejoin="round"/>
    <path d="M 66.08531951904297 73.01412963867188 C 68.58412170410156 53.511863708496094 86.51470184326172 47.387813568115234 98.4090347290039 45.90586471557617" stroke-width="2.0" fill="none" stroke="rgb(0, 0, 0)" stroke-opacity="1.0" stroke-linecap="round" stroke-linejoin="round"/>
    <path d="M 148.15866088867188 49.44493103027344 C 162.08741760253906 29.490367889404297 173.6622772216797 50.00200653076172 154.80235290527344 65.51937103271484" stroke-width="2.0" fill="none" stroke="rgb(0, 0, 0)" stroke-opacity="1.0" stroke-linecap="round" stroke-linejoin="round"/>
    <path d="M 66.80243682861328 102.52005767822266 C 47.739501953125 83.37789916992188 66.1279525756836 83.95260620117188 71.513916015625 69.95665740966797" stroke-width="2.0" fill="none" stroke="rgb(0, 0, 0)" stroke-opacity="1.0" stroke-linecap="round" stroke-linejoin="round"/>
    <path d="M 123.15023040771484 42.15998840332031 C 141.37026977539062 35.95540237426758 147.60609436035156 50.100730895996094 151.32058715820312 58.9717903137207" stroke-width="2.0" fill="none" stroke="rgb(0, 0, 0)" stroke-opacity="1.0" stroke-linecap="round" stroke-linejoin="round"/>
    <path d="M 147.96945190429688 48.60967254638672 C 161.7943115234375 29.992034912109375 173.22357177734375 49.705997467041016 155.2122802734375 65.33161926269531" stroke-width="2.0" fill="none" stroke="rgb(0, 0, 0)" stroke-opacity="1.0" stroke-linecap="round" stroke-linejoin="round"/>
    <path d="M 88.4165267944336 108.0432357788086 C 117.95716857910156 93.14673614501953 106.41556549072266 113.22541809082031 135.33837890625 103.87550354003906" stroke-width="2.0" fill="none" stroke="rgb(0, 0, 0)" stroke-opacity="1.0" stroke-linecap="round" stroke-linejoin="round"/>
    <path d="M 158.0062255859375 114.69786071777344 C 167.2027587890625 130.1259765625 152.02532958984375 147.84039306640625 167.85958862304688 171.34950256347656" stroke-width="2.0" fill="none" stroke="rgb(0, 0, 0)" stroke-opacity="1.0" stroke-linecap="round" stroke-linejoin="round"/>
    <path d="M 108.02244567871094 67.79607391357422 C 114.56758880615234 75.48651123046875 101.01887512207031 79.80206298828125 118.5447006225586 88.63836669921875" stroke-width="2.0" fill="none" stroke="rgb(0, 0, 0)" stroke-opacity="1.0" stroke-linecap="round" stroke-linejoin="round"/>
    <path d="M 113.52489471435547 109.9063949584961 C 132.08485412597656 135.59901428222656 109.6549301147461 140.8702392578125 128.47909545898438 159.96676635742188" stroke-width="2.0" fill="none" stroke="rgb(0, 0, 0)" stroke-opacity="1.0" stroke-linecap="round" stroke-linejoin="round"/>
    <path d="M 171.21595764160156 156.77618408203125 C 177.14987182617188 189.34255981445312 174.3482666015625 205.24867248535156 175.34185791015625 221.5579376220703" stroke-width="2.0" fill="none" stroke="rgb(0, 0, 0)" stroke-opacity="1.0" stroke-linecap="round" stroke-linejoin="round"/>
    <path d="M 146.9564208984375 46.56293487548828 C 154.26499938964844 60.013282775878906 148.11489868164062 63.319908142089844 154.404541015625 69.37093353271484" stroke-width="2.0" fill="none" stroke="rgb(0, 0, 0)" stroke-opacity="1.0" stroke-linecap="round" stroke-linejoin="round"/>
    <path d="M 93.7757339477539 110.61760711669922 C 119.10832214355469 89.88177490234375 120.70564270019531 125.22309112548828 152.5599365234375 93.73690032958984" stroke-width="2.0" fill="none" stroke="rgb(0, 0, 0)" stroke-opacity="1.0" stroke-linecap="round" stroke-linejoin="round"/>
    <path d="M 82.42552947998047 63.11832046508789 C 99.12223815917969 68.43571472167969 90.91641235351562 72.6664810180664 96.30322265625 73.67459869384766" stroke-width="2.0" fill="none" stroke="rgb(0, 0, 0)" stroke-opacity="1.0" stroke-linecap="round" stroke-linejoin="round"/>
    <path d="M 126.557373046875 62.81488037109375 C 136.28933715820312 55.395286560058594 136.62777709960938 66.10935974121094 141.3273162841797 64.68624877929688" stroke-width="2.0" fill="none" stroke="rgb(0, 0, 0)" stroke-opacity="1.0" stroke-linecap="round" stroke-linejoin="round"/>
    <path d="M 128.5015869140625 62.561981201171875 C 137.79150390625 55.87583923339844 137.1890106201172 65.9114990234375 143.478759765625 64.76544952392578" stroke-width="2.0" fill="none" stroke="rgb(0, 0, 0)" stroke-opacity="1.0" stroke-linecap="round" stroke-linejoin="round"/>
    <path d="M 126.59027099609375 62.937320709228516 C 136.01280212402344 55.02541732788086 137.40655517578125 65.9747543334961 141.455078125 64.6954345703125" stroke-width="2.0" fill="none" stroke="rgb(0, 0, 0)" stroke-opacity="1.0" stroke-linecap="round" stroke-linejoin="round"/>
    <path d="M 104.19699096679688 69.49757385253906 C 114.644775390625 80.63273620605469 97.00679779052734 84.76402282714844 113.97457122802734 94.95159912109375" stroke-width="2.0" fill="none" stroke="rgb(0, 0, 0)" stroke-opacity="1.0" stroke-linecap="round" stroke-linejoin="round"/>
    <path d="M 148.0006561279297 152.317138671875 C 159.2788543701172 163.82357788085938 148.38348388671875 166.94166564941406 160.81594848632812 174.98875427246094" stroke-width="2.0" fill="none" stroke="rgb(0, 0, 0)" stroke-opacity="1.0" stroke-linecap="round" stroke-linejoin="round"/>
    <path d="M 164.60110473632812 128.69789123535156 C 177.446044921875 133.8868865966797 166.98724365234375 149.7850799560547 168.52479553222656 164.2825927734375" stroke-width="2.0" fill="none" stroke="rgb(0, 0, 0)" stroke-opacity="1.0" stroke-linecap="round" stroke-linejoin="round"/>
    <path d="M 189.28916931152344 167.38424682617188 C 202.28070068359375 178.35687255859375 211.23268127441406 188.18206787109375 214.0887908935547 221.7718505859375" stroke-width="2.0" fill="none" stroke="rgb(0, 0, 0)" stroke-opacity="1.0" stroke-linecap="round" stroke-linejoin="round"/>
    <path d="M 181.3037872314453 157.19224548339844 C 197.48834228515625 173.7305450439453 209.75802612304688 181.71615600585938 213.32786560058594 218.33921813964844" stroke-width="2.0" fill="none" stroke="rgb(0, 0, 0)" stroke-opacity="1.0" stroke-linecap="round" stroke-linejoin="round"/>
  </g>
</svg>
