<?xml version="1.0" ?>
<svg xmlns="http://www.w3.org/2000/svg" version="1.1" width="224" height="224">
  <defs/>
  <g>
    <path d="M 76.40245819091797 133.604736328125 C 68.78099822998047 168.61892700195312 61.08686065673828 192.9610137939453 54.54865264892578 205.64585876464844" stroke-width="2.0" fill="none" stroke="rgb(0, 0, 0)" stroke-opacity="1.0" stroke-linecap="round" stroke-linejoin="round"/>
    <path d="M 132.59359741210938 145.0648956298828 C 176.40650939941406 137.26612854003906 160.73764038085938 139.5176239013672 168.38821411132812 153.53851318359375" stroke-width="2.0" fill="none" stroke="rgb(0, 0, 0)" stroke-opacity="1.0" stroke-linecap="round" stroke-linejoin="round"/>
    <path d="M 71.0554428100586 110.21656036376953 C 52.78200912475586 35.3228645324707 51.87858581542969 27.697002410888672 69.9491958618164 55.80022430419922" stroke-width="2.0" fill="none" stroke="rgb(0, 0, 0)" stroke-opacity="1.0" stroke-linecap="round" stroke-linejoin="round"/>
    <path d="M 85.98323059082031 34.15241622924805 C 118.82967376708984 38.94189453125 142.86077880859375 47.501426696777344 118.9850845336914 71.30583953857422" stroke-width="2.0" fill="none" stroke="rgb(0, 0, 0)" stroke-opacity="1.0" stroke-linecap="round" stroke-linejoin="round"/>
    <path d="M 72.04878997802734 110.88134765625 C 109.6024169921875 108.23358154296875 133.29693603515625 108.57007598876953 160.18368530273438 112.53045654296875" stroke-width="2.0" fill="none" stroke="rgb(0, 0, 0)" stroke-opacity="1.0" stroke-linecap="round" stroke-linejoin="round"/>
    <path d="M 69.7413101196289 81.7646713256836 C 76.52185821533203 126.0850601196289 83.10787963867188 104.6025390625 124.11767578125 109.96121215820312" stroke-width="2.0" fill="none" stroke="rgb(0, 0, 0)" stroke-opacity="1.0" stroke-linecap="round" stroke-linejoin="round"/>
    <path d="M 164.31866455078125 137.2880401611328 C 171.7347869873047 171.18280029296875 166.0458526611328 183.84046936035156 177.34205627441406 209.24868774414062" stroke-width="2.0" fill="none" stroke="rgb(0, 0, 0)" stroke-opacity="1.0" stroke-linecap="round" stroke-linejoin="round"/>
    <path d="M 111.69387817382812 107.72284698486328 C 144.6246795654297 111.84219360351562 182.24374389648438 107.23007202148438 175.2541961669922 114.3512954711914" stroke-width="2.0" fill="none" stroke="rgb(0, 0, 0)" stroke-opacity="1.0" stroke-linecap="round" stroke-linejoin="round"/>
    <path d="M 66.5661849975586 59.25602722167969 C 83.37599182128906 47.40592956542969 87.49217224121094 69.05522155761719 108.70670318603516 66.47868347167969" stroke-width="2.0" fill="none" stroke="rgb(0, 0, 0)" stroke-opacity="1.0" stroke-linecap="round" stroke-linejoin="round"/>
    <path d="M 99.75694274902344 41.53216552734375 C 124.06751251220703 56.85295104980469 115.43863677978516 57.52223205566406 110.215576171875 85.86640167236328" stroke-width="2.0" fill="none" stroke="rgb(0, 0, 0)" stroke-opacity="1.0" stroke-linecap="round" stroke-linejoin="round"/>
    <path d="M 127.23564910888672 52.91917419433594 C 127.39657592773438 61.94081115722656 125.354248046875 65.26022338867188 111.14329528808594 92.27237701416016" stroke-width="2.0" fill="none" stroke="rgb(0, 0, 0)" stroke-opacity="1.0" stroke-linecap="round" stroke-linejoin="round"/>
    <path d="M 120.66415405273438 109.27562713623047 C 167.51873779296875 111.93040466308594 187.92698669433594 108.274169921875 171.55111694335938 116.62118530273438" stroke-width="2.0" fill="none" stroke="rgb(0, 0, 0)" stroke-opacity="1.0" stroke-linecap="round" stroke-linejoin="round"/>
    <path d="M 125.6808853149414 131.30517578125 C 127.48641967773438 153.99679565429688 126.10572814941406 173.25453186035156 128.59622192382812 195.69168090820312" stroke-width="2.0" fill="none" stroke="rgb(0, 0, 0)" stroke-opacity="1.0" stroke-linecap="round" stroke-linejoin="round"/>
    <path d="M 110.80255126953125 50.261871337890625 C 122.21372985839844 74.78922271728516 104.64776611328125 90.72708129882812 93.25934600830078 107.14774322509766" stroke-width="2.0" fill="none" stroke="rgb(0, 0, 0)" stroke-opacity="1.0" stroke-linecap="round" stroke-linejoin="round"/>
    <path d="M 113.02681732177734 47.68561553955078 C 120.31534576416016 74.34774780273438 109.97514343261719 92.5267105102539 97.06964111328125 107.93643188476562" stroke-width="2.0" fill="none" stroke="rgb(0, 0, 0)" stroke-opacity="1.0" stroke-linecap="round" stroke-linejoin="round"/>
    <path d="M 80.26191711425781 132.5947265625 C 113.55943298339844 139.00564575195312 111.35012817382812 139.5245819091797 135.08282470703125 138.69837951660156" stroke-width="2.0" fill="none" stroke="rgb(0, 0, 0)" stroke-opacity="1.0" stroke-linecap="round" stroke-linejoin="round"/>
    <path d="M 154.21035766601562 136.38778686523438 C 170.7580108642578 139.9318084716797 163.13082885742188 145.265869140625 168.28836059570312 160.8419952392578" stroke-width="2.0" fill="none" stroke="rgb(0, 0, 0)" stroke-opacity="1.0" stroke-linecap="round" stroke-linejoin="round"/>
    <path d="M 72.15531921386719 118.57115173339844 C 113.41619873046875 116.62372589111328 111.81597137451172 114.02103424072266 115.8480453491211 122.55561828613281" stroke-width="2.0" fill="none" stroke="rgb(0, 0, 0)" stroke-opacity="1.0" stroke-linecap="round" stroke-linejoin="round"/>
    <path d="M 65.62535095214844 49.247989654541016 C 73.59104919433594 111.13180541992188 76.49282836914062 104.01250457763672 108.0396728515625 102.79216003417969" stroke-width="2.0" fill="none" stroke="rgb(0, 0, 0)" stroke-opacity="1.0" stroke-linecap="round" stroke-linejoin="round"/>
    <path d="M 121.85765075683594 124.43579864501953 C 125.99937438964844 158.11341857910156 126.29771423339844 173.13748168945312 128.91114807128906 197.08900451660156" stroke-width="2.0" fill="none" stroke="rgb(0, 0, 0)" stroke-opacity="1.0" stroke-linecap="round" stroke-linejoin="round"/>
    <path d="M 55.79155731201172 205.44500732421875 C 73.075927734375 155.5220947265625 72.60052490234375 154.5028076171875 83.14496612548828 127.21159362792969" stroke-width="2.0" fill="none" stroke="rgb(0, 0, 0)" stroke-opacity="1.0" stroke-linecap="round" stroke-linejoin="round"/>
    <path d="M 88.00444793701172 49.9254150390625 C 96.19502258300781 38.59184265136719 87.99541473388672 48.530418395996094 108.0568618774414 47.557369232177734" stroke-width="2.0" fill="none" stroke="rgb(0, 0, 0)" stroke-opacity="1.0" stroke-linecap="round" stroke-linejoin="round"/>
    <path d="M 82.46401977539062 100.39103698730469 C 77.5068588256836 137.83596801757812 84.56851959228516 130.74771118164062 69.082763671875 158.66078186035156" stroke-width="2.0" fill="none" stroke="rgb(0, 0, 0)" stroke-opacity="1.0" stroke-linecap="round" stroke-linejoin="round"/>
    <path d="M 122.18009948730469 57.434600830078125 C 124.43816375732422 70.27446746826172 119.00819396972656 73.11616516113281 111.83149719238281 106.54025268554688" stroke-width="2.0" fill="none" stroke="rgb(0, 0, 0)" stroke-opacity="1.0" stroke-linecap="round" stroke-linejoin="round"/>
    <path d="M 99.15621948242188 126.08322143554688 C 99.66184997558594 153.9056396484375 97.37017059326172 175.4951171875 93.19859313964844 207.57936096191406" stroke-width="2.0" fill="none" stroke="rgb(0, 0, 0)" stroke-opacity="1.0" stroke-linecap="round" stroke-linejoin="round"/>
    <path d="M 121.77179718017578 120.59541320800781 C 192.8951416015625 119.87690734863281 159.73822021484375 104.58856964111328 168.2132568359375 152.0145263671875" stroke-width="2.0" fill="none" stroke="rgb(0, 0, 0)" stroke-opacity="1.0" stroke-linecap="round" stroke-linejoin="round"/>
    <path d="M 75.10735321044922 42.70492935180664 C 108.92276763916016 59.16218185424805 84.49839782714844 63.81473159790039 102.13864135742188 85.31928253173828" stroke-width="2.0" fill="none" stroke="rgb(0, 0, 0)" stroke-opacity="1.0" stroke-linecap="round" stroke-linejoin="round"/>
    <path d="M 96.31687927246094 37.32225799560547 C 119.66952514648438 39.99618911743164 138.71534729003906 48.285789489746094 122.26976776123047 67.48931884765625" stroke-width="2.0" fill="none" stroke="rgb(0, 0, 0)" stroke-opacity="1.0" stroke-linecap="round" stroke-linejoin="round"/>
    <path d="M 81.0628433227539 138.38162231445312 C 127.40167236328125 140.14625549316406 118.30139923095703 137.36834716796875 123.8604965209961 144.0634307861328" stroke-width="2.0" fill="none" stroke="rgb(0, 0, 0)" stroke-opacity="1.0" stroke-linecap="round" stroke-linejoin="round"/>
    <path d="M 86.51214599609375 120.55061340332031 C 120.126220703125 128.40452575683594 161.32350158691406 130.61325073242188 171.20716857910156 124.72091674804688" stroke-width="2.0" fill="none" stroke="rgb(0, 0, 0)" stroke-opacity="1.0" stroke-linecap="round" stroke-linejoin="round"/>
    <path d="M 97.67284393310547 124.63583374023438 C 97.87445831298828 151.88340759277344 95.64962005615234 182.4746856689453 89.95066833496094 210.3775177001953" stroke-width="2.0" fill="none" stroke="rgb(0, 0, 0)" stroke-opacity="1.0" stroke-linecap="round" stroke-linejoin="round"/>
    <path d="M 59.47230911254883 58.810604095458984 C 40.253658294677734 29.282419204711914 72.36129760742188 30.094314575195312 93.41812133789062 36.96723937988281" stroke-width="2.0" fill="none" stroke="rgb(0, 0, 0)" stroke-opacity="1.0" stroke-linecap="round" stroke-linejoin="round"/>
  </g>
</svg>
