<?xml version="1.0" ?>
<svg xmlns="http://www.w3.org/2000/svg" version="1.1" width="224" height="224">
  <defs/>
  <g>
    <path d="M 68.27426147460938 130.42694091796875 C 64.73707580566406 182.2707977294922 75.71349334716797 178.8016815185547 68.46479797363281 192.8610382080078" stroke-width="2.0" fill="none" stroke="rgb(0, 0, 0)" stroke-opacity="1.0" stroke-linecap="round" stroke-linejoin="round"/>
    <path d="M 64.30172729492188 145.92063903808594 C 50.98616027832031 100.8541488647461 65.33385467529297 77.8218994140625 80.09468841552734 80.39627838134766" stroke-width="2.0" fill="none" stroke="rgb(0, 0, 0)" stroke-opacity="1.0" stroke-linecap="round" stroke-linejoin="round"/>
    <path d="M 149.50672912597656 105.9758529663086 C 154.24179077148438 130.09544372558594 137.3897705078125 135.39816284179688 143.63169860839844 162.58030700683594" stroke-width="2.0" fill="none" stroke="rgb(0, 0, 0)" stroke-opacity="1.0" stroke-linecap="round" stroke-linejoin="round"/>
    <path d="M 106.31602478027344 81.77324676513672 C 122.44306945800781 64.05674743652344 128.21665954589844 50.59191131591797 151.28054809570312 39.57716751098633" stroke-width="2.0" fill="none" stroke="rgb(0, 0, 0)" stroke-opacity="1.0" stroke-linecap="round" stroke-linejoin="round"/>
    <path d="M 111.73602294921875 79.89608001708984 C 127.29153442382812 52.79041290283203 139.53662109375 41.94684600830078 154.60183715820312 37.87226867675781" stroke-width="2.0" fill="none" stroke="rgb(0, 0, 0)" stroke-opacity="1.0" stroke-linecap="round" stroke-linejoin="round"/>
    <path d="M 140.77914428710938 154.6660919189453 C 153.86502075195312 202.16542053222656 143.2957000732422 198.60430908203125 156.00723266601562 202.79827880859375" stroke-width="2.0" fill="none" stroke="rgb(0, 0, 0)" stroke-opacity="1.0" stroke-linecap="round" stroke-linejoin="round"/>
    <path d="M 133.968505859375 143.9432373046875 C 137.56134033203125 191.14683532714844 117.87582397460938 198.23468017578125 128.85662841796875 200.7028045654297" stroke-width="2.0" fill="none" stroke="rgb(0, 0, 0)" stroke-opacity="1.0" stroke-linecap="round" stroke-linejoin="round"/>
    <path d="M 134.63282775878906 145.52218627929688 C 136.26708984375 197.27220153808594 115.90155792236328 201.4110107421875 130.76779174804688 201.05624389648438" stroke-width="2.0" fill="none" stroke="rgb(0, 0, 0)" stroke-opacity="1.0" stroke-linecap="round" stroke-linejoin="round"/>
    <path d="M 67.26765441894531 122.67449188232422 C 64.35842895507812 130.1285858154297 52.883331298828125 153.30706787109375 64.13517761230469 169.5634307861328" stroke-width="2.0" fill="none" stroke="rgb(0, 0, 0)" stroke-opacity="1.0" stroke-linecap="round" stroke-linejoin="round"/>
    <path d="M 141.93385314941406 143.99342346191406 C 151.2630157470703 168.4425506591797 137.744384765625 180.47274780273438 154.21897888183594 200.75442504882812" stroke-width="2.0" fill="none" stroke="rgb(0, 0, 0)" stroke-opacity="1.0" stroke-linecap="round" stroke-linejoin="round"/>
    <path d="M 151.0457763671875 31.42770767211914 C 143.00894165039062 51.34731674194336 161.09771728515625 47.46995162963867 166.90762329101562 32.79584503173828" stroke-width="2.0" fill="none" stroke="rgb(0, 0, 0)" stroke-opacity="1.0" stroke-linecap="round" stroke-linejoin="round"/>
    <path d="M 65.08927154541016 132.44281005859375 C 75.325439453125 194.44459533691406 61.37409973144531 189.3754425048828 69.85462951660156 193.5652313232422" stroke-width="2.0" fill="none" stroke="rgb(0, 0, 0)" stroke-opacity="1.0" stroke-linecap="round" stroke-linejoin="round"/>
    <path d="M 157.39447021484375 38.17283630371094 C 178.13613891601562 58.39598083496094 157.0572052001953 54.16490936279297 166.52935791015625 90.02084350585938" stroke-width="2.0" fill="none" stroke="rgb(0, 0, 0)" stroke-opacity="1.0" stroke-linecap="round" stroke-linejoin="round"/>
    <path d="M 72.81932830810547 125.26522827148438 C 78.5835189819336 134.29190063476562 62.68070602416992 141.0352020263672 69.11289978027344 173.2196502685547" stroke-width="2.0" fill="none" stroke="rgb(0, 0, 0)" stroke-opacity="1.0" stroke-linecap="round" stroke-linejoin="round"/>
    <path d="M 164.22341918945312 72.63744354248047 C 164.40650939941406 73.20974731445312 168.02313232421875 93.56120300292969 163.29681396484375 92.9939956665039" stroke-width="2.0" fill="none" stroke="rgb(0, 0, 0)" stroke-opacity="1.0" stroke-linecap="round" stroke-linejoin="round"/>
    <path d="M 120.43228912353516 128.89752197265625 C 142.4419403076172 150.2977294921875 130.3260040283203 155.0107879638672 144.65875244140625 164.6521759033203" stroke-width="2.0" fill="none" stroke="rgb(0, 0, 0)" stroke-opacity="1.0" stroke-linecap="round" stroke-linejoin="round"/>
    <path d="M 105.31391906738281 81.09723663330078 C 120.85606384277344 65.05398559570312 127.37843322753906 52.20441436767578 148.29954528808594 40.61497497558594" stroke-width="2.0" fill="none" stroke="rgb(0, 0, 0)" stroke-opacity="1.0" stroke-linecap="round" stroke-linejoin="round"/>
    <path d="M 150.65762329101562 78.4917984008789 C 159.36166381835938 84.38796997070312 165.06942749023438 106.5374526977539 167.355224609375 87.63617706298828" stroke-width="2.0" fill="none" stroke="rgb(0, 0, 0)" stroke-opacity="1.0" stroke-linecap="round" stroke-linejoin="round"/>
    <path d="M 82.34541320800781 78.91664123535156 C 96.6574478149414 76.22966003417969 99.06388854980469 91.51364135742188 118.2893295288086 71.13329315185547" stroke-width="2.0" fill="none" stroke="rgb(0, 0, 0)" stroke-opacity="1.0" stroke-linecap="round" stroke-linejoin="round"/>
    <path d="M 60.221153259277344 101.85910034179688 C 66.45574188232422 66.07674407958984 95.89070129394531 79.04812622070312 104.3912353515625 82.82121276855469" stroke-width="2.0" fill="none" stroke="rgb(0, 0, 0)" stroke-opacity="1.0" stroke-linecap="round" stroke-linejoin="round"/>
    <path d="M 69.75995635986328 102.84347534179688 C 67.33567810058594 125.1815185546875 91.69499969482422 143.40451049804688 114.83987426757812 132.27096557617188" stroke-width="2.0" fill="none" stroke="rgb(0, 0, 0)" stroke-opacity="1.0" stroke-linecap="round" stroke-linejoin="round"/>
    <path d="M 121.2960205078125 128.9712677001953 C 136.9459991455078 156.16427612304688 141.08428955078125 150.8682861328125 137.26470947265625 171.65939331054688" stroke-width="2.0" fill="none" stroke="rgb(0, 0, 0)" stroke-opacity="1.0" stroke-linecap="round" stroke-linejoin="round"/>
    <path d="M 146.49227905273438 38.53355407714844 C 128.1034698486328 58.92347717285156 123.07072448730469 86.58433532714844 124.21269226074219 96.4110336303711" stroke-width="2.0" fill="none" stroke="rgb(0, 0, 0)" stroke-opacity="1.0" stroke-linecap="round" stroke-linejoin="round"/>
    <path d="M 77.62712860107422 87.54161834716797 C 54.62171936035156 116.42282104492188 90.88843536376953 116.07585144042969 69.39646911621094 138.43777465820312" stroke-width="2.0" fill="none" stroke="rgb(0, 0, 0)" stroke-opacity="1.0" stroke-linecap="round" stroke-linejoin="round"/>
    <path d="M 143.993408203125 42.00988006591797 C 129.17459106445312 82.6949462890625 129.87078857421875 95.79885864257812 131.96400451660156 100.31117248535156" stroke-width="2.0" fill="none" stroke="rgb(0, 0, 0)" stroke-opacity="1.0" stroke-linecap="round" stroke-linejoin="round"/>
    <path d="M 142.91763305664062 61.962791442871094 C 158.77105712890625 83.15508270263672 158.65249633789062 95.40299987792969 167.29283142089844 91.51292419433594" stroke-width="2.0" fill="none" stroke="rgb(0, 0, 0)" stroke-opacity="1.0" stroke-linecap="round" stroke-linejoin="round"/>
    <path d="M 144.41110229492188 46.49122619628906 C 146.34713745117188 85.93594360351562 140.75619506835938 88.38304138183594 140.30307006835938 103.34955596923828" stroke-width="2.0" fill="none" stroke="rgb(0, 0, 0)" stroke-opacity="1.0" stroke-linecap="round" stroke-linejoin="round"/>
    <path d="M 147.40121459960938 37.79002380371094 C 131.69580078125 77.08480072021484 136.33822631835938 89.08013916015625 135.85736083984375 97.43984985351562" stroke-width="2.0" fill="none" stroke="rgb(0, 0, 0)" stroke-opacity="1.0" stroke-linecap="round" stroke-linejoin="round"/>
    <path d="M 145.7811737060547 83.66218566894531 C 149.40338134765625 109.73776245117188 159.69081115722656 120.27600860595703 137.54119873046875 137.4453125" stroke-width="2.0" fill="none" stroke="rgb(0, 0, 0)" stroke-opacity="1.0" stroke-linecap="round" stroke-linejoin="round"/>
    <path d="M 109.9028091430664 116.86068725585938 C 118.95723724365234 136.21592712402344 101.38086700439453 128.42196655273438 97.90194702148438 166.27865600585938" stroke-width="2.0" fill="none" stroke="rgb(0, 0, 0)" stroke-opacity="1.0" stroke-linecap="round" stroke-linejoin="round"/>
    <path d="M 108.8820571899414 113.34176635742188 C 118.49678039550781 135.8603515625 109.90985107421875 123.69778442382812 99.79552459716797 154.6280059814453" stroke-width="2.0" fill="none" stroke="rgb(0, 0, 0)" stroke-opacity="1.0" stroke-linecap="round" stroke-linejoin="round"/>
    <path d="M 108.7471694946289 111.6826171875 C 117.84228515625 135.62484741210938 107.8625259399414 122.0531005859375 98.69789123535156 160.888916015625" stroke-width="2.0" fill="none" stroke="rgb(0, 0, 0)" stroke-opacity="1.0" stroke-linecap="round" stroke-linejoin="round"/>
  </g>
</svg>
