<?xml version="1.0" ?>
<svg xmlns="http://www.w3.org/2000/svg" version="1.1" width="224" height="224">
  <defs/>
  <g>
    <path d="M 95.626220703125 105.13812255859375 C 112.48001098632812 180.87916564941406 112.0887222290039 184.8655548095703 113.73269653320312 193.59576416015625" stroke-width="2.0" fill="none" stroke="rgb(0, 0, 0)" stroke-opacity="1.0" stroke-linecap="round" stroke-linejoin="round"/>
    <path d="M 103.72000885009766 192.67538452148438 C 72.95380401611328 200.93753051757812 85.35906982421875 209.10226440429688 138.06607055664062 203.05517578125" stroke-width="2.0" fill="none" stroke="rgb(0, 0, 0)" stroke-opacity="1.0" stroke-linecap="round" stroke-linejoin="round"/>
    <path d="M 125.85623168945312 145.7174835205078 C 120.05647277832031 187.68077087402344 113.68144226074219 182.16006469726562 131.15203857421875 190.98367309570312" stroke-width="2.0" fill="none" stroke="rgb(0, 0, 0)" stroke-opacity="1.0" stroke-linecap="round" stroke-linejoin="round"/>
    <path d="M 95.28865814208984 56.65787887573242 C 88.39226531982422 40.887359619140625 100.11190795898438 31.900115966796875 112.34700012207031 31.572084426879883" stroke-width="2.0" fill="none" stroke="rgb(0, 0, 0)" stroke-opacity="1.0" stroke-linecap="round" stroke-linejoin="round"/>
    <path d="M 97.83110046386719 110.25779724121094 C 109.30592346191406 187.84939575195312 118.92643737792969 186.4687042236328 95.1219253540039 197.8115234375" stroke-width="2.0" fill="none" stroke="rgb(0, 0, 0)" stroke-opacity="1.0" stroke-linecap="round" stroke-linejoin="round"/>
    <path d="M 92.9684066772461 205.7172088623047 C 128.20814514160156 206.2962646484375 165.02316284179688 203.89129638671875 133.49794006347656 193.45318603515625" stroke-width="2.0" fill="none" stroke="rgb(0, 0, 0)" stroke-opacity="1.0" stroke-linecap="round" stroke-linejoin="round"/>
    <path d="M 100.46915435791016 35.692386627197266 C 120.53995513916016 23.638797760009766 138.72901916503906 36.002410888671875 134.0904541015625 58.617637634277344" stroke-width="2.0" fill="none" stroke="rgb(0, 0, 0)" stroke-opacity="1.0" stroke-linecap="round" stroke-linejoin="round"/>
    <path d="M 129.63058471679688 91.57683563232422 C 143.63479614257812 103.0053482055664 137.6796417236328 106.21809387207031 131.85104370117188 131.9345703125" stroke-width="2.0" fill="none" stroke="rgb(0, 0, 0)" stroke-opacity="1.0" stroke-linecap="round" stroke-linejoin="round"/>
    <path d="M 84.0323486328125 93.27084350585938 C 70.25081634521484 71.55366516113281 88.56306457519531 64.971435546875 94.04244232177734 65.03398132324219" stroke-width="2.0" fill="none" stroke="rgb(0, 0, 0)" stroke-opacity="1.0" stroke-linecap="round" stroke-linejoin="round"/>
    <path d="M 80.98031616210938 93.20663452148438 C 76.59297943115234 79.5888671875 81.33891296386719 65.51437377929688 90.04203796386719 60.08492660522461" stroke-width="2.0" fill="none" stroke="rgb(0, 0, 0)" stroke-opacity="1.0" stroke-linecap="round" stroke-linejoin="round"/>
    <path d="M 89.74885559082031 90.51753234863281 C 90.0703353881836 108.04547119140625 102.36859130859375 143.0846405029297 108.02783203125 175.68089294433594" stroke-width="2.0" fill="none" stroke="rgb(0, 0, 0)" stroke-opacity="1.0" stroke-linecap="round" stroke-linejoin="round"/>
    <path d="M 131.37753295898438 55.77615737915039 C 139.22940063476562 59.6825065612793 142.5147705078125 61.82158660888672 145.61488342285156 63.621944427490234" stroke-width="2.0" fill="none" stroke="rgb(0, 0, 0)" stroke-opacity="1.0" stroke-linecap="round" stroke-linejoin="round"/>
    <path d="M 102.31072235107422 33.62006378173828 C 88.3931655883789 40.767616271972656 97.13655090332031 50.40394592285156 95.50245666503906 58.798851013183594" stroke-width="2.0" fill="none" stroke="rgb(0, 0, 0)" stroke-opacity="1.0" stroke-linecap="round" stroke-linejoin="round"/>
    <path d="M 148.73394775390625 76.68289184570312 C 149.92974853515625 82.75763702392578 152.09336853027344 99.23095703125 134.67550659179688 103.06341552734375" stroke-width="2.0" fill="none" stroke="rgb(0, 0, 0)" stroke-opacity="1.0" stroke-linecap="round" stroke-linejoin="round"/>
    <path d="M 141.6655731201172 61.0740966796875 C 146.458251953125 58.79161071777344 152.1136474609375 81.66496276855469 145.28817749023438 95.34160614013672" stroke-width="2.0" fill="none" stroke="rgb(0, 0, 0)" stroke-opacity="1.0" stroke-linecap="round" stroke-linejoin="round"/>
    <path d="M 92.071533203125 55.46010208129883 C 100.6580581665039 47.511192321777344 117.31069946289062 57.8469123840332 119.53811645507812 62.27086639404297" stroke-width="2.0" fill="none" stroke="rgb(0, 0, 0)" stroke-opacity="1.0" stroke-linecap="round" stroke-linejoin="round"/>
    <path d="M 124.00472259521484 54.53596115112305 C 141.0894775390625 57.67615509033203 148.53268432617188 59.991519927978516 148.73110961914062 79.21273803710938" stroke-width="2.0" fill="none" stroke="rgb(0, 0, 0)" stroke-opacity="1.0" stroke-linecap="round" stroke-linejoin="round"/>
    <path d="M 78.37482452392578 91.00372314453125 C 97.30432891845703 76.7415771484375 87.26190185546875 95.442138671875 110.36021423339844 85.7444839477539" stroke-width="2.0" fill="none" stroke="rgb(0, 0, 0)" stroke-opacity="1.0" stroke-linecap="round" stroke-linejoin="round"/>
    <path d="M 134.4095916748047 97.735107421875 C 140.21336364746094 108.78348541259766 135.2379608154297 125.16865539550781 125.33349609375 153.76089477539062" stroke-width="2.0" fill="none" stroke="rgb(0, 0, 0)" stroke-opacity="1.0" stroke-linecap="round" stroke-linejoin="round"/>
    <path d="M 94.06107330322266 54.68411636352539 C 111.49000549316406 53.04644775390625 107.97560119628906 63.49585723876953 120.21603393554688 60.84172058105469" stroke-width="2.0" fill="none" stroke="rgb(0, 0, 0)" stroke-opacity="1.0" stroke-linecap="round" stroke-linejoin="round"/>
    <path d="M 78.66803741455078 93.98249816894531 C 118.42935943603516 85.52373504638672 79.92680358886719 99.22206115722656 111.1272201538086 109.18833923339844" stroke-width="2.0" fill="none" stroke="rgb(0, 0, 0)" stroke-opacity="1.0" stroke-linecap="round" stroke-linejoin="round"/>
    <path d="M 121.32817077636719 57.264610290527344 C 119.1267318725586 70.62603759765625 120.24093627929688 66.61592864990234 113.09939575195312 89.16281127929688" stroke-width="2.0" fill="none" stroke="rgb(0, 0, 0)" stroke-opacity="1.0" stroke-linecap="round" stroke-linejoin="round"/>
    <path d="M 117.11851501464844 55.918270111083984 C 124.37909698486328 61.45196533203125 117.26819610595703 57.61621856689453 118.79901123046875 71.34527587890625" stroke-width="2.0" fill="none" stroke="rgb(0, 0, 0)" stroke-opacity="1.0" stroke-linecap="round" stroke-linejoin="round"/>
    <path d="M 123.24890899658203 55.30165100097656 C 118.28910064697266 67.15510559082031 120.93976593017578 62.34624481201172 114.3519515991211 85.93997955322266" stroke-width="2.0" fill="none" stroke="rgb(0, 0, 0)" stroke-opacity="1.0" stroke-linecap="round" stroke-linejoin="round"/>
    <path d="M 81.66706085205078 102.47821044921875 C 120.64268493652344 72.23229217529297 96.52597045898438 105.5815658569336 129.99305725097656 76.80769348144531" stroke-width="2.0" fill="none" stroke="rgb(0, 0, 0)" stroke-opacity="1.0" stroke-linecap="round" stroke-linejoin="round"/>
    <path d="M 85.36591339111328 102.63926696777344 C 132.22418212890625 68.47315216064453 108.0634536743164 93.13402557373047 134.66464233398438 78.64945983886719" stroke-width="2.0" fill="none" stroke="rgb(0, 0, 0)" stroke-opacity="1.0" stroke-linecap="round" stroke-linejoin="round"/>
    <path d="M 130.0970458984375 119.93888854980469 C 126.29258728027344 165.84165954589844 114.41793060302734 175.63970947265625 121.96287536621094 197.39395141601562" stroke-width="2.0" fill="none" stroke="rgb(0, 0, 0)" stroke-opacity="1.0" stroke-linecap="round" stroke-linejoin="round"/>
    <path d="M 106.1434555053711 92.78400421142578 C 134.21141052246094 62.888729095458984 129.50790405273438 95.98253631591797 147.68081665039062 93.37821960449219" stroke-width="2.0" fill="none" stroke="rgb(0, 0, 0)" stroke-opacity="1.0" stroke-linecap="round" stroke-linejoin="round"/>
    <path d="M 133.5879669189453 99.89332580566406 C 137.8842010498047 115.56244659423828 134.0795440673828 132.12457275390625 121.20305633544922 165.88858032226562" stroke-width="2.0" fill="none" stroke="rgb(0, 0, 0)" stroke-opacity="1.0" stroke-linecap="round" stroke-linejoin="round"/>
    <path d="M 87.0508041381836 103.61602783203125 C 108.9419937133789 82.7024154663086 93.6871337890625 115.34349060058594 125.10282135009766 95.52798461914062" stroke-width="2.0" fill="none" stroke="rgb(0, 0, 0)" stroke-opacity="1.0" stroke-linecap="round" stroke-linejoin="round"/>
    <path d="M 125.49877166748047 89.8761978149414 C 137.8568115234375 120.422607421875 118.51260375976562 124.05353546142578 111.2286605834961 155.66287231445312" stroke-width="2.0" fill="none" stroke="rgb(0, 0, 0)" stroke-opacity="1.0" stroke-linecap="round" stroke-linejoin="round"/>
    <path d="M 96.20318603515625 97.97471618652344 C 106.71511840820312 155.92320251464844 112.5548095703125 169.43194580078125 117.8864517211914 190.376220703125" stroke-width="2.0" fill="none" stroke="rgb(0, 0, 0)" stroke-opacity="1.0" stroke-linecap="round" stroke-linejoin="round"/>
  </g>
</svg>
