<?xml version="1.0" ?>
<svg xmlns="http://www.w3.org/2000/svg" version="1.1" width="224" height="224">
  <defs/>
  <g>
    <path d="M 115.64486694335938 88.8660888671875 C 135.43324279785156 86.82637786865234 152.0325927734375 99.46943664550781 165.47537231445312 117.51227569580078" stroke-width="2.0" fill="none" stroke="rgb(0, 0, 0)" stroke-opacity="1.0" stroke-linecap="round" stroke-linejoin="round"/>
    <path d="M 102.56752014160156 58.13358688354492 C 104.87458801269531 20.52272605895996 145.5553741455078 10.944803237915039 138.8878173828125 19.34051513671875" stroke-width="2.0" fill="none" stroke="rgb(0, 0, 0)" stroke-opacity="1.0" stroke-linecap="round" stroke-linejoin="round"/>
    <path d="M 87.74951171875 158.234619140625 C 96.30303192138672 182.47280883789062 60.605979919433594 191.36895751953125 89.59188842773438 187.21115112304688" stroke-width="2.0" fill="none" stroke="rgb(0, 0, 0)" stroke-opacity="1.0" stroke-linecap="round" stroke-linejoin="round"/>
    <path d="M 64.6624984741211 19.14649200439453 C 76.21650695800781 19.56231689453125 96.34900665283203 31.9320125579834 95.10014343261719 52.40606689453125" stroke-width="2.0" fill="none" stroke="rgb(0, 0, 0)" stroke-opacity="1.0" stroke-linecap="round" stroke-linejoin="round"/>
    <path d="M 65.87716674804688 21.244958877563477 C 78.51496124267578 39.64291763305664 84.52294921875 48.73387908935547 84.26081848144531 58.600502014160156" stroke-width="2.0" fill="none" stroke="rgb(0, 0, 0)" stroke-opacity="1.0" stroke-linecap="round" stroke-linejoin="round"/>
    <path d="M 119.7876968383789 180.99404907226562 C 136.59906005859375 185.83642578125 155.16314697265625 186.43243408203125 174.52423095703125 184.23117065429688" stroke-width="2.0" fill="none" stroke="rgb(0, 0, 0)" stroke-opacity="1.0" stroke-linecap="round" stroke-linejoin="round"/>
    <path d="M 75.47305297851562 99.66218566894531 C 61.02179718017578 150.91653442382812 99.75784301757812 149.31748962402344 86.44700622558594 176.09730529785156" stroke-width="2.0" fill="none" stroke="rgb(0, 0, 0)" stroke-opacity="1.0" stroke-linecap="round" stroke-linejoin="round"/>
    <path d="M 167.66348266601562 122.57553100585938 C 180.6048583984375 135.8413848876953 182.7721710205078 162.40484619140625 166.39328002929688 175.75856018066406" stroke-width="2.0" fill="none" stroke="rgb(0, 0, 0)" stroke-opacity="1.0" stroke-linecap="round" stroke-linejoin="round"/>
    <path d="M 103.31336975097656 61.354209899902344 C 101.89137268066406 29.122268676757812 124.5124740600586 21.07050323486328 131.9849853515625 18.986515045166016" stroke-width="2.0" fill="none" stroke="rgb(0, 0, 0)" stroke-opacity="1.0" stroke-linecap="round" stroke-linejoin="round"/>
    <path d="M 65.2182388305664 20.20570945739746 C 64.71839904785156 16.129274368286133 94.0662612915039 25.606121063232422 95.4106216430664 47.7543830871582" stroke-width="2.0" fill="none" stroke="rgb(0, 0, 0)" stroke-opacity="1.0" stroke-linecap="round" stroke-linejoin="round"/>
    <path d="M 59.43385696411133 90.82987976074219 C 67.76142883300781 56.433563232421875 84.58027648925781 61.91810607910156 97.62217712402344 53.76997375488281" stroke-width="2.0" fill="none" stroke="rgb(0, 0, 0)" stroke-opacity="1.0" stroke-linecap="round" stroke-linejoin="round"/>
    <path d="M 139.20614624023438 18.943971633911133 C 133.7222900390625 45.8990478515625 134.35562133789062 49.35497283935547 115.18405151367188 63.857200622558594" stroke-width="2.0" fill="none" stroke="rgb(0, 0, 0)" stroke-opacity="1.0" stroke-linecap="round" stroke-linejoin="round"/>
    <path d="M 113.42958068847656 70.49530029296875 C 108.01173400878906 85.30947875976562 124.66920471191406 92.33538818359375 106.59346771240234 104.24519348144531" stroke-width="2.0" fill="none" stroke="rgb(0, 0, 0)" stroke-opacity="1.0" stroke-linecap="round" stroke-linejoin="round"/>
    <path d="M 108.32806396484375 46.293182373046875 C 114.95608520507812 66.83004760742188 109.73359680175781 59.172080993652344 112.46401977539062 81.47775268554688" stroke-width="2.0" fill="none" stroke="rgb(0, 0, 0)" stroke-opacity="1.0" stroke-linecap="round" stroke-linejoin="round"/>
    <path d="M 100.39810943603516 159.1653289794922 C 99.18749237060547 175.94203186035156 81.86402130126953 194.8521270751953 101.1961441040039 185.65687561035156" stroke-width="2.0" fill="none" stroke="rgb(0, 0, 0)" stroke-opacity="1.0" stroke-linecap="round" stroke-linejoin="round"/>
    <path d="M 113.26792907714844 70.67424774169922 C 107.99185943603516 83.7439956665039 124.0442123413086 93.12039184570312 106.60135650634766 104.07237243652344" stroke-width="2.0" fill="none" stroke="rgb(0, 0, 0)" stroke-opacity="1.0" stroke-linecap="round" stroke-linejoin="round"/>
    <path d="M 139.31834411621094 19.356130599975586 C 134.4434356689453 43.44144058227539 134.6590118408203 49.53356170654297 114.83935546875 63.12213134765625" stroke-width="2.0" fill="none" stroke="rgb(0, 0, 0)" stroke-opacity="1.0" stroke-linecap="round" stroke-linejoin="round"/>
    <path d="M 143.42384338378906 97.01875305175781 C 160.05084228515625 107.42375183105469 170.22962951660156 124.31394958496094 175.59426879882812 134.03024291992188" stroke-width="2.0" fill="none" stroke="rgb(0, 0, 0)" stroke-opacity="1.0" stroke-linecap="round" stroke-linejoin="round"/>
    <path d="M 64.75877380371094 77.44992065429688 C 53.317466735839844 100.90169525146484 53.4893684387207 107.3684310913086 74.74226379394531 110.5758056640625" stroke-width="2.0" fill="none" stroke="rgb(0, 0, 0)" stroke-opacity="1.0" stroke-linecap="round" stroke-linejoin="round"/>
    <path d="M 61.18380355834961 101.83907318115234 C 76.12028503417969 106.25360107421875 63.79801559448242 109.17955780029297 77.22161102294922 113.14222717285156" stroke-width="2.0" fill="none" stroke="rgb(0, 0, 0)" stroke-opacity="1.0" stroke-linecap="round" stroke-linejoin="round"/>
    <path d="M 139.4695281982422 19.353633880615234 C 136.05410766601562 37.94694519042969 135.86404418945312 47.995262145996094 118.50517272949219 60.0097770690918" stroke-width="2.0" fill="none" stroke="rgb(0, 0, 0)" stroke-opacity="1.0" stroke-linecap="round" stroke-linejoin="round"/>
    <path d="M 70.7422866821289 110.52076721191406 C 77.51018524169922 109.21063995361328 106.75725555419922 115.13423919677734 115.64704132080078 92.679443359375" stroke-width="2.0" fill="none" stroke="rgb(0, 0, 0)" stroke-opacity="1.0" stroke-linecap="round" stroke-linejoin="round"/>
    <path d="M 82.59700012207031 81.53150939941406 C 89.66487884521484 71.38995361328125 99.2935791015625 77.1324462890625 85.210205078125 83.80876159667969" stroke-width="2.0" fill="none" stroke="rgb(0, 0, 0)" stroke-opacity="1.0" stroke-linecap="round" stroke-linejoin="round"/>
    <path d="M 85.85298156738281 80.89979553222656 C 91.85787963867188 71.03970336914062 101.99736022949219 77.65913391113281 88.05088806152344 83.92654418945312" stroke-width="2.0" fill="none" stroke="rgb(0, 0, 0)" stroke-opacity="1.0" stroke-linecap="round" stroke-linejoin="round"/>
    <path d="M 86.52924346923828 80.65802764892578 C 93.8206558227539 70.79900360107422 100.56244659423828 78.47980499267578 89.13721466064453 83.90892791748047" stroke-width="2.0" fill="none" stroke="rgb(0, 0, 0)" stroke-opacity="1.0" stroke-linecap="round" stroke-linejoin="round"/>
    <path d="M 86.19213104248047 80.72523498535156 C 93.0285415649414 70.64399719238281 101.54399108886719 78.59808349609375 88.24713897705078 84.09490203857422" stroke-width="2.0" fill="none" stroke="rgb(0, 0, 0)" stroke-opacity="1.0" stroke-linecap="round" stroke-linejoin="round"/>
    <path d="M 116.61450958251953 93.79582214355469 C 112.18633270263672 103.79771423339844 102.1744384765625 108.77268981933594 90.93989562988281 109.97944641113281" stroke-width="2.0" fill="none" stroke="rgb(0, 0, 0)" stroke-opacity="1.0" stroke-linecap="round" stroke-linejoin="round"/>
    <path d="M 112.98487854003906 158.62062072753906 C 110.0675048828125 161.31268310546875 106.22911071777344 182.51766967773438 105.1419906616211 184.76022338867188" stroke-width="2.0" fill="none" stroke="rgb(0, 0, 0)" stroke-opacity="1.0" stroke-linecap="round" stroke-linejoin="round"/>
    <path d="M 129.86856079101562 125.57129669189453 C 130.04266357421875 145.21859741210938 122.03392791748047 150.85841369628906 122.3935775756836 157.6107635498047" stroke-width="2.0" fill="none" stroke="rgb(0, 0, 0)" stroke-opacity="1.0" stroke-linecap="round" stroke-linejoin="round"/>
    <path d="M 131.04962158203125 143.17782592773438 C 124.7699203491211 158.73370361328125 110.45370483398438 165.49490356445312 123.38874816894531 181.12303161621094" stroke-width="2.0" fill="none" stroke="rgb(0, 0, 0)" stroke-opacity="1.0" stroke-linecap="round" stroke-linejoin="round"/>
    <path d="M 149.1558380126953 182.1165771484375 C 167.13858032226562 180.15933227539062 162.80667114257812 180.6142120361328 174.09109497070312 180.830078125" stroke-width="2.0" fill="none" stroke="rgb(0, 0, 0)" stroke-opacity="1.0" stroke-linecap="round" stroke-linejoin="round"/>
    <path d="M 148.0889892578125 181.72161865234375 C 166.0695037841797 180.42250061035156 162.23509216308594 180.5126953125 173.86459350585938 180.19786071777344" stroke-width="2.0" fill="none" stroke="rgb(0, 0, 0)" stroke-opacity="1.0" stroke-linecap="round" stroke-linejoin="round"/>
  </g>
</svg>
